<svg width="70" height="70" viewBox="0 0 70 70" fill="none" xmlns="http://www.w3.org/2000/svg">
<path d="M35 0C15.6897 0 0 15.6897 0 35C0 54.3103 15.6897 70 35 70C54.3103 70 70 54.3103 70 35C70 15.6897 54.2006 0 35 0Z" fill="white"/>
<path d="M52.6646 9.87445C50.0314 16.677 43.8872 18.1033 35.1097 18.1033C34.1223 18.1033 33.2445 18.1033 32.3668 18.1033C31.4891 18.1033 30.721 18.1033 29.8433 18.1033C29.0753 18.1033 28.417 18.1033 27.6489 18.1033C28.8558 15.0312 30.8307 13.0563 33.6834 11.7397C37.6333 9.98417 42.6803 9.98417 47.1787 9.98417C49.0439 9.98417 50.9091 9.98417 52.6646 9.87445Z" fill="#008F3B"/>
<path d="M55.4078 12.0689C51.458 20.6269 42.6805 21.5046 35.11 21.5046C33.4642 21.5046 31.8185 21.5046 30.3921 21.5046L28.5269 28.9654C38.2918 21.0657 51.1288 28.8557 49.7025 40.8149C48.8247 48.8243 43.0097 54.0908 36.9752 55.6268C30.3921 57.2726 23.0411 54.8588 19.7495 48.0563C19.4204 47.2883 18.7621 45.862 18.5426 45.2037L25.5646 43.4482C25.6743 43.887 25.8937 44.2162 26.1131 44.5453C30.831 52.1159 40.2668 48.2757 41.3639 40.4858C42.4611 32.4764 31.2699 28.3071 26.2229 37.6331L20.0787 34.9999H19.969L22.9313 23.0406C23.1508 22.1629 23.6994 19.8588 23.8091 19.42C27.2103 7.02184 38.0724 6.8024 46.8498 6.8024C43.2291 5.26635 39.2793 4.49832 35.11 4.49832C17.994 4.27889 4.2793 17.9936 4.2793 34.9999C4.2793 51.8964 17.994 65.6112 34.8906 65.6112C51.7871 65.6112 65.5019 51.8964 65.5019 34.9999C65.6116 25.8933 61.6617 17.6645 55.4078 12.0689Z" fill="#E22222"/>
</svg>
